<?xml version="1.0" standalone="no"?>
<svg xmlns:xlink="http://www.w3.org/1999/xlink" id="wave" style="transform:rotate(180deg); transition: 0.3s" viewBox="0 0 1440 290" version="1.1" xmlns="http://www.w3.org/2000/svg"><defs><linearGradient id="sw-gradient-0" x1="0" x2="0" y1="1" y2="0"><stop stop-color="rgba(255, 0, 0, 1)" offset="0%"/><stop stop-color="rgba(255, 133.476, 0, 1)" offset="100%"/></linearGradient></defs><path style="transform:translate(0, 0px); opacity:1" fill="url(#sw-gradient-0)" d="M0,116L40,101.5C80,87,160,58,240,53.2C320,48,400,68,480,67.7C560,68,640,48,720,58C800,68,880,106,960,130.5C1040,155,1120,164,1200,154.7C1280,145,1360,116,1440,87C1520,58,1600,29,1680,43.5C1760,58,1840,116,1920,116C2000,116,2080,58,2160,72.5C2240,87,2320,174,2400,217.5C2480,261,2560,261,2640,222.3C2720,184,2800,106,2880,82.2C2960,58,3040,87,3120,106.3C3200,126,3280,135,3360,116C3440,97,3520,48,3600,58C3680,68,3760,135,3840,169.2C3920,203,4000,203,4080,203C4160,203,4240,203,4320,174C4400,145,4480,87,4560,77.3C4640,68,4720,106,4800,130.5C4880,155,4960,164,5040,154.7C5120,145,5200,116,5280,120.8C5360,126,5440,164,5520,159.5C5600,155,5680,106,5720,82.2L5760,58L5760,290L5720,290C5680,290,5600,290,5520,290C5440,290,5360,290,5280,290C5200,290,5120,290,5040,290C4960,290,4880,290,4800,290C4720,290,4640,290,4560,290C4480,290,4400,290,4320,290C4240,290,4160,290,4080,290C4000,290,3920,290,3840,290C3760,290,3680,290,3600,290C3520,290,3440,290,3360,290C3280,290,3200,290,3120,290C3040,290,2960,290,2880,290C2800,290,2720,290,2640,290C2560,290,2480,290,2400,290C2320,290,2240,290,2160,290C2080,290,2000,290,1920,290C1840,290,1760,290,1680,290C1600,290,1520,290,1440,290C1360,290,1280,290,1200,290C1120,290,1040,290,960,290C880,290,800,290,720,290C640,290,560,290,480,290C400,290,320,290,240,290C160,290,80,290,40,290L0,290Z"/></svg>