<svg width="100%" height="100%" id="svg" viewBox="0 0 1440 600" xmlns="http://www.w3.org/2000/svg" class="transition duration-300 ease-in-out delay-150"><defs><linearGradient id="gradient" x1="53%" y1="100%" x2="47%" y2="0%"><stop offset="5%" stop-color="#eb144c"></stop><stop offset="95%" stop-color="#ff6900"></stop></linearGradient></defs><path d="M 0,600 C 0,600 0,150 0,150 C 75.24081071796633,163.19065613191344 150.48162143593265,176.38131226382686 217,167 C 283.51837856406735,157.61868773617314 341.31432497423566,125.66540707660596 409,125 C 476.68567502576434,124.33459292339404 554.2610786671247,154.95705942974925 628,161 C 701.7389213328753,167.04294057025075 771.6413603572654,148.5063552043971 839,139 C 906.3586396427346,129.4936447956029 971.1734799038134,129.01751975266228 1030,125 C 1088.8265200961866,120.9824802473377 1141.6647200274817,113.42356578495364 1209,117 C 1276.3352799725183,120.57643421504636 1358.167639986259,135.28821710752317 1440,150 C 1440,150 1440,600 1440,600 Z" stroke="none" stroke-width="0" fill="url(#gradient)" fill-opacity="0.4" class="transition-all duration-300 ease-in-out delay-150 path-0" transform="rotate(-180 720 300)"></path><defs><linearGradient id="gradient" x1="53%" y1="100%" x2="47%" y2="0%"><stop offset="5%" stop-color="#eb144c"></stop><stop offset="95%" stop-color="#ff6900"></stop></linearGradient></defs><path d="M 0,600 C 0,600 0,300 0,300 C 75.78770182068018,281.62349708004126 151.57540364136037,263.24699416008247 222,277 C 292.42459635863963,290.75300583991753 357.48608725523883,336.63552043971146 420,348 C 482.51391274476117,359.36447956028854 542.4802473376845,336.21092408107177 622,320 C 701.5197526623155,303.78907591892823 800.5929233940227,294.5207832360014 858,306 C 915.4070766059773,317.4792167639986 931.1480590862247,349.70594297492266 990,337 C 1048.8519409137753,324.29405702507734 1150.8148402610786,266.6554448643078 1233,253 C 1315.1851597389214,239.3445551356922 1377.5925798694607,269.6722775678461 1440,300 C 1440,300 1440,600 1440,600 Z" stroke="none" stroke-width="0" fill="url(#gradient)" fill-opacity="0.53" class="transition-all duration-300 ease-in-out delay-150 path-1" transform="rotate(-180 720 300)"></path><defs><linearGradient id="gradient" x1="53%" y1="100%" x2="47%" y2="0%"><stop offset="5%" stop-color="#eb144c"></stop><stop offset="95%" stop-color="#ff6900"></stop></linearGradient></defs><path d="M 0,600 C 0,600 0,450 0,450 C 50.331844726897984,467.389213328753 100.66368945379597,484.778426657506 177,482 C 253.33631054620403,479.221573342494 355.6770869117141,456.275506698729 429,457 C 502.3229130882859,457.724493301271 546.6279628993474,482.1195465475782 610,487 C 673.3720371006526,491.8804534524218 755.8110614908966,477.2463071109585 840,459 C 924.1889385091034,440.7536928890415 1010.1277911370662,418.89522500858806 1065,427 C 1119.8722088629338,435.10477499141194 1143.6777739608383,473.1727928546891 1201,482 C 1258.3222260391617,490.8272071453109 1349.1611130195809,470.41360357265546 1440,450 C 1440,450 1440,600 1440,600 Z" stroke="none" stroke-width="0" fill="url(#gradient)" fill-opacity="1" class="transition-all duration-300 ease-in-out delay-150 path-2" transform="rotate(-180 720 300)"></path></svg>
