<svg width="100%" height="100%" id="svg" viewBox="0 0 1440 600" xmlns="http://www.w3.org/2000/svg" class="transition duration-300 ease-in-out delay-150"><defs><linearGradient id="gradient" x1="53%" y1="100%" x2="47%" y2="0%"><stop offset="5%" stop-color="#eb144c"></stop><stop offset="95%" stop-color="#ff6900"></stop></linearGradient></defs><path d="M 0,600 C 0,600 0,120 0,120 C 47.40158021298522,126.88285812435589 94.80316042597045,133.76571624871178 168,123 C 241.19683957402955,112.23428375128822 340.1889385091034,83.81999312950876 413,79 C 485.8110614908966,74.18000687049124 532.4410855376159,92.95431123325318 586,97 C 639.5589144623841,101.04568876674682 700.0467193404329,90.36276193747852 788,101 C 875.9532806595671,111.63723806252148 991.3720371006527,143.59464101683272 1063,137 C 1134.6279628993473,130.40535898316728 1162.4651322569562,85.25867399519065 1218,76 C 1273.5348677430438,66.74132600480935 1356.767433871522,93.37066300240468 1440,120 C 1440,120 1440,600 1440,600 Z" stroke="none" stroke-width="0" fill="url(#gradient)" fill-opacity="0.265" class="transition-all duration-300 ease-in-out delay-150 path-0"></path><defs><linearGradient id="gradient" x1="53%" y1="100%" x2="47%" y2="0%"><stop offset="5%" stop-color="#eb144c"></stop><stop offset="95%" stop-color="#ff6900"></stop></linearGradient></defs><path d="M 0,600 C 0,600 0,240 0,240 C 79.02095499828238,216.4788732394366 158.04190999656475,192.95774647887325 230,206 C 301.95809000343525,219.04225352112675 366.8533150120234,268.6478873239437 424,272 C 481.1466849879766,275.3521126760563 530.5448299553418,232.45070422535213 607,219 C 683.4551700446582,205.54929577464787 786.9673651666094,221.54929577464787 858,227 C 929.0326348333906,232.45070422535213 967.5857093782204,227.35211267605635 1031,238 C 1094.4142906217796,248.64788732394365 1182.6897973205084,275.0422535211267 1255,278 C 1327.3102026794916,280.9577464788733 1383.6551013397457,260.47887323943667 1440,240 C 1440,240 1440,600 1440,600 Z" stroke="none" stroke-width="0" fill="url(#gradient)" fill-opacity="0.4" class="transition-all duration-300 ease-in-out delay-150 path-1"></path><defs><linearGradient id="gradient" x1="53%" y1="100%" x2="47%" y2="0%"><stop offset="5%" stop-color="#eb144c"></stop><stop offset="95%" stop-color="#ff6900"></stop></linearGradient></defs><path d="M 0,600 C 0,600 0,360 0,360 C 87.18515973892136,346.0446581930608 174.3703194778427,332.0893163861216 235,334 C 295.6296805221573,335.9106836138784 329.7038818275506,353.68739264857436 390,356 C 450.2961181724494,358.31260735142564 536.8141532119547,345.1611130195809 616,341 C 695.1858467880453,336.8388869804191 767.0395053246307,341.668155273102 836,348 C 904.9604946753693,354.331844726898 971.0278254895225,362.166265888011 1030,360 C 1088.9721745104775,357.833734111989 1140.849192717279,345.666781174854 1208,344 C 1275.150807282721,342.333218825146 1357.5754036413605,351.166609412573 1440,360 C 1440,360 1440,600 1440,600 Z" stroke="none" stroke-width="0" fill="url(#gradient)" fill-opacity="0.53" class="transition-all duration-300 ease-in-out delay-150 path-2"></path><defs><linearGradient id="gradient" x1="53%" y1="100%" x2="47%" y2="0%"><stop offset="5%" stop-color="#eb144c"></stop><stop offset="95%" stop-color="#ff6900"></stop></linearGradient></defs><path d="M 0,600 C 0,600 0,480 0,480 C 55.93541738234285,480.9762968052216 111.8708347646857,481.95259361044316 187,482 C 262.1291652353143,482.04740638955684 356.45207832360006,481.165922363449 425,475 C 493.54792167639994,468.834077636551 536.3208519409138,457.3837169357609 606,451 C 675.6791480590862,444.6162830642391 772.2645139127449,443.2992098935074 838,446 C 903.7354860872551,448.7007901064926 938.621092408107,455.4194434902096 1002,453 C 1065.378907591893,450.5805565097904 1157.2511164548266,439.0230161456544 1235,442 C 1312.7488835451734,444.9769838543456 1376.3744417725866,462.4884919271728 1440,480 C 1440,480 1440,600 1440,600 Z" stroke="none" stroke-width="0" fill="url(#gradient)" fill-opacity="1" class="transition-all duration-300 ease-in-out delay-150 path-3"></path></svg>
