<svg version="1.1" xmlns="http://www.w3.org/2000/svg" xmlns:xlink="http://www.w3.org/1999/xlink" viewBox="0 0 120 120" width="120" height="120"><style type="text/css">.st0{fill:#FFF}.st1{fill:#ECEFF1}.st2{fill:#F5F5F5}.st3{fill:#55C45F}.st4{fill:#CFD8DC}.st5{fill:#FC764A}.st6{fill:#FEC308}.st7{fill:#2CD6AA}.st8{fill:#5A6171}</style><path class="st0" d="M8,28c0-2.2,1.8-4,4-4h80c2.2,0,4,1.8,4,4v44H8V28z" fill="#FFFFFF"></path>
<path class="st1" d="M96,80c0,2.2-1.8,4-4,4H12c-2.2,0-4-1.8-4-4v-4h88V80z" fill="#ECEFF1"></path>
<path class="st2" d="M86,72c0,1.1-0.9,2-2,2H20c-1.1,0-2-0.9-2-2V42h68V72z" fill="#F5F5F5"></path>
<path class="st3" d="M34.9,62.2v-9.6c0-0.7,0.5-1.2,1.2-1.2h5.6c0.6,0,1.1,0.5,1.1,1.1c0,0.6-0.5,1.1-1.1,1.1h-4.4v3
h3.4c0.6,0,1.1,0.5,1.1,1.1c0,0.6-0.5,1.1-1.1,1.1h-3.4v3.5c0,0.7-0.5,1.2-1.2,1.2C35.4,63.4,34.9,62.9,34.9,62.2z" fill="#55C45F"></path>
<path class="st3" d="M56.1,52.3v9.8c0,0.7-0.5,1.2-1.2,1.2c-0.7,0-1.2-0.5-1.2-1.2v-5.9l-2.2,3.5
c-0.3,0.5-0.7,0.8-1.2,0.8c-0.5,0-0.8-0.2-1.2-0.8l-2.2-3.5v5.9c0,0.7-0.5,1.2-1.2,1.2c-0.7,0-1.2-0.5-1.2-1.2v-9.8
c0-0.7,0.5-1.3,1.2-1.3c0.5,0,0.9,0.3,1.3,0.9l3.3,5.3l3.3-5.3c0.4-0.7,0.8-0.9,1.3-0.9C55.6,51.1,56.1,51.6,56.1,52.3z" fill="#55C45F"></path>
<path class="st3" d="M58.2,57.2c0-3.5,2.8-6.2,6.3-6.2c1.8,0,3.5,0.8,4.6,2.1c0.3,0.3,0.4,0.6,0.4,0.9
c0,0.6-0.5,1.1-1.1,1.1c-0.3,0-0.7-0.2-0.9-0.5c-0.8-0.9-1.7-1.3-2.9-1.3c-2.2,0-3.8,1.6-3.8,3.9c0,2.3,1.6,3.9,3.8,3.9
c1.1,0,2.1-0.4,2.9-1.3c0.3-0.3,0.6-0.5,1-0.5c0.6,0,1.1,0.5,1.1,1.1c0,0.3-0.1,0.6-0.4,0.9c-1,1.3-2.8,2.1-4.6,2.1
C60.9,63.4,58.2,60.7,58.2,57.2z" fill="#55C45F"></path>
<path class="st4" d="M87,41c0,0.6-0.4,1-1,1H18c-0.6,0-1-0.4-1-1l0,0c0-0.6,0.4-1,1-1h68C86.6,40,87,40.4,87,41
L87,41z" fill="#CFD8DC"></path>
<path class="st1" d="M84,37c0,0.6-0.4,1-1,1H33c-0.6,0-1-0.4-1-1l0,0c0-0.6,0.4-1,1-1h50C83.6,36,84,36.4,84,37
L84,37z" fill="#ECEFF1"></path>
<circle class="st5" cx="21" cy="37" r="1" fill="#FC764A"></circle>
<circle class="st6" cx="25" cy="37" r="1" fill="#FEC308"></circle>
<circle class="st7" cx="29" cy="37" r="1" fill="#2CD6AA"></circle>
<path class="st4" d="M84,34c1.1,0,2,0.9,2,2v36c0,1.1-0.9,2-2,2H20c-1.1,0-2-0.9-2-2V36c0-1.1,0.9-2,2-2H84 M84,32
H20c-2.2,0-4,1.8-4,4v36c0,2.2,1.8,4,4,4h64c2.2,0,4-1.8,4-4V36C88,33.8,86.2,32,84,32L84,32z" fill="#CFD8DC"></path>
<circle class="st4" cx="52" cy="80" r="2" fill="#CFD8DC"></circle>
<path class="st8" d="M92,20H12c-4.4,0-8,3.6-8,8v52c0,4.4,3.6,8,8,8h32v8h-6c-1.1,0-2,0.9-2,2s0.9,2,2,2h28
c1.1,0,2-0.9,2-2s-0.9-2-2-2h-6v-8h32c4.4,0,8-3.6,8-8V28C100,23.6,96.4,20,92,20z M8,28c0-2.2,1.8-4,4-4h80c2.2,0,4,1.8,4,4v44H8
V28z M56,96h-8v-8h8V96z M96,80c0,2.2-1.8,4-4,4H12c-2.2,0-4-1.8-4-4v-4h88V80z" fill="#5A6171"></path>
<rect x="48" y="88" class="st4" width="8" height="8" fill="#CFD8DC"></rect>
<path class="st1" d="M84,46c0-2.2,1.8-4,4-4h20c2.2,0,4,1.8,4,4v8H84V46z" fill="#ECEFF1"></path>
<path class="st1" d="M112,92c0,2.2-1.8,4-4,4H88c-2.2,0-4-1.8-4-4v-6h28V92z" fill="#ECEFF1"></path>
<rect x="84" y="58" class="st0" width="28" height="24" fill="#FFFFFF"></rect>
<path class="st8" d="M108,38H88c-4.4,0-8,3.6-8,8v46c0,4.4,3.6,8,8,8h20c4.4,0,8-3.6,8-8V46
C116,41.6,112.4,38,108,38z M84,58h28v24H84V58z M84,46c0-2.2,1.8-4,4-4h20c2.2,0,4,1.8,4,4v8H84V46z M112,92c0,2.2-1.8,4-4,4H88
c-2.2,0-4-1.8-4-4v-6h28V92z" fill="#5A6171"></path>
<circle class="st4" cx="98" cy="91" r="2" fill="#CFD8DC"></circle>
<path class="st4" d="M103,48c0,1.1-0.9,2-2,2h-6c-1.1,0-2-0.9-2-2l0,0c0-1.1,0.9-2,2-2h6C102.1,46,103,46.9,103,48
L103,48z" fill="#CFD8DC"></path>
<path class="st3" d="M104.4,64.3c-0.4-0.4-1.2-0.4-1.6,0l-7.1,7.1l-2.6-2.6c-0.4-0.4-1.2-0.4-1.6,0
c-0.4,0.4-0.4,1.2,0,1.6l3.4,3.4c0.2,0.2,0.5,0.3,0.8,0.3c0.3,0,0.6-0.1,0.8-0.3l7.9-7.9C104.9,65.4,104.9,64.7,104.4,64.3z" fill="#55C45F"></path>
</svg>