<svg xmlns="http://www.w3.org/2000/svg" xmlns:xlink="http://www.w3.org/1999/xlink" x="0px" y="0px" width="120" height="120" viewBox="0 0 120 120">
<g>
<path style="" d="M40,28c0-2.2,1.8-4,4-4h32c2.2,0,4,1.8,4,4v8H40V28z" fill="#ECEFF1"></path>
<path style="" d="M80,92c0,2.2-1.8,4-4,4H44c-2.2,0-4-1.8-4-4v-6h40V92z" fill="#ECEFF1"></path>
<rect x="40" y="40" style="" width="40" height="42" fill="#FFFFFF"></rect>
<path style="" d="M76,20H44c-4.4,0-8,3.6-8,8v64c0,4.4,3.6,8,8,8h32c4.4,0,8-3.6,8-8V28C84,23.6,80.4,20,76,20z
M40,40h40v42H40V40z M40,28c0-2.2,1.8-4,4-4h32c2.2,0,4,1.8,4,4v8H40V28z M80,92c0,2.2-1.8,4-4,4H44c-2.2,0-4-1.8-4-4v-6h40V92z" fill="#5A6171"></path>
<circle style="" cx="60" cy="91" r="2" fill="#CFD8DC"></circle>
<path style="" d="M65,30c0,1.1-0.9,2-2,2h-6c-1.1,0-2-0.9-2-2l0,0c0-1.1,0.9-2,2-2h6C64.1,28,65,28.9,65,30L65,30
z" fill="#CFD8DC"></path>
</g>
<g>
<circle style="" cx="60" cy="67.6" r="3.3" fill="#F16322"></circle>
<polygon style="" points="60,49.1 48,70.9 53.4,70.9 60,58.9 66.6,70.9 72,70.9 	" fill="#002963"></polygon>
</g>
</svg>