<svg xmlns="http://www.w3.org/2000/svg" xmlns:xlink="http://www.w3.org/1999/xlink" x="0px" y="0px" viewBox="0 0 110 110" style="enable-background:new 0 0 110 110;" xml:space="preserve" width="110"  height="110" >
<circle fill="#FFE57F" cx="55" cy="55" r="55"/>
<path fill="#76D03B" d="M77.1,73.9c1.4,1.2,0.8,3.6-1,4C71.7,78.8,63.9,80,53.9,80c-10.1,0-17.7-1.2-22-2.1  c-1.9-0.4-2.5-2.7-1-4c2.9-2.4,7.1-4.4,12.9-5.4c0,0,0.1,0,0.1,0h0.3c0.4,1.5,4.4,4.9,9.7,4.9c5.4,0,9-3.3,9.7-4.9l0-0.1  c0.1,0,0.2,0.1,0.3,0.1C70,69.4,74.2,71.5,77.1,73.9z"/>
<path fill="#EFDCD2" d="M63.7,68.4L63.7,68.4c-0.8,1.7-4.4,5-9.8,5c-5.4,0-9.3-3.4-9.7-4.9H44c1-0.4,2.2-2.7,1.4-5.4  c3.5,3.1,5.9,4.5,7.2,4.5c0.1,0,0.6-0.3,1.5-0.3c0.9,0,1.5,0.3,1.6,0.3c0.5,0,4.3-1.9,6.8-4.5C61.8,65.7,62.8,67.9,63.7,68.4z"/>
<path fill="#AA8566" d="M61,29.4c4.8,1.7,8.4,6,7.7,11.8c-0.1,1.2-0.4,2-0.7,2.5l0,0c0.1-2-1.8-2.7-3-2.3  c-5,1.8-9.3-3-15.6,1.8c-0.9-1.5-1.1-4.5,1.1-6.3c-2.9,0.3-4.2,2.1-6.5,3.2c-2.3,1.2-3.7,1.2-3.7,3.1l0,0c-0.4-0.5-0.7-0.8-0.8-1.3  c-1.5-6.4,2.1-10,7.3-12.3c1-0.4,0.2-6.3,1.3-5.3C51,27.3,59.1,28.7,61,29.4z"/>
<path fill="#EFDCD2" d="M68,43.7L68,43.7c-0.2,0.4-0.3,0.7-0.4,1c0,0-0.7-0.5-0.8,0.1c0.5,0.5,1.5,1.2,1.5,2.4  c0,1.7-0.4,5.1-2.4,6.2c-0.2,3.8-3.4,9.7-3.4,9.7c-2.5,2.6-6.3,4.5-6.8,4.5c-0.1,0-0.7-0.3-1.6-0.3c-0.9,0-1.4,0.3-1.5,0.3  c-1.3,0-3.8-1.4-7.2-4.5c0,0-3.2-5.9-3.4-9.7c-2-1-2.4-4.5-2.4-6.2c0-1.1,1-1.9,1.5-2.4c-0.3-0.7-0.5-1.1-0.8-1.5l0,0  c0-1.9,1.4-2,3.7-3.1c2.3-1.1,3.6-2.9,6.5-3.2c-2.2,1.8-2,4.8-1.1,6.3c6.3-4.8,10.6,0,15.6-1.8C66.3,41,68.1,41.7,68,43.7z"/>
	<path fill="#383128" d="M54.2,81c-10,0-17.6-1.1-22.2-2.1c-1.2-0.3-2.2-1.2-2.5-2.4c-0.3-1.2,0.1-2.5,1.1-3.3   c3.3-2.8,7.8-4.7,13.3-5.6c0.4-0.2,1.4-2,0.7-4.1c-0.2-0.5,0.1-1.1,0.7-1.2c0.5-0.2,1.1,0.1,1.2,0.7c0.6,2.2,0.1,4.2-0.6,5.3   c-0.5,0.8-1.1,1.3-1.7,1.4c-5.2,0.9-9.3,2.6-12.4,5.2c-0.4,0.3-0.5,0.8-0.4,1.3c0.1,0.5,0.5,0.8,1,0.9c4.5,0.9,11.9,2,21.8,2   c1,0,2.1,0,3.1,0c0,0,0,0,0,0c0.5,0,1,0.4,1,1c0,0.6-0.4,1-1,1C56.3,81,55.2,81,54.2,81z"/>
	<path fill="#383128" d="M59,50c-0.3,0-0.5-0.1-0.7-0.3C58.1,49.5,58,49.3,58,49c0-0.3,0.1-0.5,0.3-0.7   c0.4-0.4,1-0.4,1.4,0c0.2,0.2,0.3,0.4,0.3,0.7c0,0.3-0.1,0.5-0.3,0.7C59.5,49.9,59.3,50,59,50z"/>
	<path fill="#383128" d="M55.9,68.6c-0.2,0-0.3-0.1-0.5-0.1c-0.2-0.1-0.6-0.2-1.1-0.2c-0.5,0-0.8,0.1-1,0.2   c-0.1,0-0.3,0.1-0.5,0.1c-2.2,0-5.5-2.6-7.9-4.8c-0.1-0.1-0.2-0.2-0.2-0.3c-0.1-0.2-3-5.7-3.4-9.6c-2.3-1.7-2.4-5.9-2.4-6.8   c0-1.2,0.7-2.1,1.3-2.6c-0.2-0.5-0.5-0.8-0.7-1c-0.3-0.3-0.5-0.7-0.7-1.3c-1.4-5.9,1.1-10.4,7.6-13.4c0.1-0.4,0.2-1.6,0.2-2.3   c0.1-1.8,0.1-2.9,1.1-3.3c0.2-0.1,0.8-0.2,1.3,0.3c2.1,2,7.2,3.3,10.3,4.1c1,0.3,1.8,0.5,2.3,0.6c5.7,2,9,7.1,8.3,12.9   c-0.2,1.7-0.6,2.5-0.9,3.1c-0.1,0.2-0.2,0.3-0.2,0.4c0,0.1-0.1,0.2-0.1,0.3c0.4,0.5,0.8,1.2,0.8,2c0,0.9-0.1,5-2.4,6.8l0,0.2   c0,0.6-0.5,1-1,1c-0.6,0-1-0.5-1-1l0-0.7c0-0.3,0.2-0.7,0.5-0.8c1.3-0.7,1.9-3.3,1.9-5.3c0-0.5-0.5-1-0.9-1.4   c-0.1-0.1-0.2-0.2-0.2-0.2c-0.2-0.2-0.3-0.6-0.3-0.9c0.1-0.5,0.4-0.9,0.8-1.1c0.1-0.1,0.3-0.1,0.4-0.1c0.2-0.5,0.5-1.1,0.6-2.3   c0.7-5.9-3.2-9.4-7-10.8c-0.4-0.1-1.2-0.3-2.1-0.6c-2.9-0.7-7.4-1.9-10.2-3.8c0,0.3,0,0.5,0,0.8c-0.1,1.9-0.2,3.4-1.2,3.9   c-5.8,2.6-7.9,6.1-6.7,11.2c0,0.1,0.1,0.2,0.3,0.5c0.3,0.4,0.8,1,1.2,2.2c0.1,0.4,0,0.8-0.2,1.1c-0.1,0.1-0.2,0.2-0.2,0.2   c-0.4,0.4-0.9,0.9-0.9,1.4c0,1.8,0.5,4.6,1.9,5.3c0.3,0.2,0.5,0.5,0.5,0.8c0.1,3.2,2.7,8.2,3.2,9.2c3.9,3.5,5.7,4,6.3,4.1   c0.3-0.1,0.9-0.3,1.7-0.3c0.7,0,1.3,0.2,1.6,0.3c0.2-0.1,0.4-0.2,0.8-0.3c0.5-0.2,1.1,0,1.3,0.4c0.2,0.5,0,1.1-0.4,1.3   C56.4,68.6,56.1,68.6,55.9,68.6z"/>
	<path fill="#383128" d="M68.3,44.7C68.2,44.7,68.2,44.7,68.3,44.7c-0.6,0-1-0.5-1-1.1c0-0.5-0.1-0.8-0.4-1.1   c-0.3-0.3-0.9-0.3-1.3-0.2c-2.3,0.8-4.4,0.4-6.4,0.1c-2.8-0.5-5.5-1-8.9,1.6c-0.2,0.2-0.5,0.2-0.8,0.2c-0.3-0.1-0.5-0.2-0.7-0.5   c-0.7-1.2-1-3.1-0.5-4.9c-0.5,0.3-0.9,0.6-1.4,0.9c-0.7,0.5-1.4,0.9-2.2,1.3c-0.5,0.3-1,0.5-1.4,0.7c-1.6,0.7-1.7,0.8-1.7,1.5   c0,0.6-0.4,1-1,1c-0.6,0-1-0.4-1-1c0-2.1,1.4-2.8,2.9-3.4c0.4-0.2,0.8-0.4,1.3-0.6c0.7-0.3,1.3-0.8,1.9-1.2   c1.3-0.9,2.7-1.9,4.9-2.1c0.4,0,0.9,0.2,1,0.6c0.2,0.4,0.1,0.9-0.3,1.2c-1.3,1.1-1.5,2.7-1.3,3.9c3.6-2.3,6.7-1.7,9.4-1.2   c1.9,0.3,3.6,0.7,5.4,0c1.1-0.4,2.3-0.2,3.2,0.5c0.8,0.6,1.3,1.6,1.2,2.8C69.2,44.3,68.8,44.7,68.3,44.7z"/>
	<path fill="#383128" d="M54.2,74.4c-5.9,0-10.1-3.7-10.7-5.6c-0.1-0.5,0.2-1.1,0.7-1.2c0.5-0.2,1.1,0.2,1.2,0.7   c0.3,1.1,3.8,4.2,8.8,4.2c0.9,0,1.8-0.1,2.7-0.3c0.5-0.1,1.1,0.2,1.2,0.7c0.1,0.5-0.2,1.1-0.7,1.2C56.4,74.3,55.3,74.4,54.2,74.4z"/>
	<path fill="#383128" d="M54.2,61.3c-1.5,0-2.3-0.3-2.4-0.4c-0.5-0.2-0.7-0.8-0.5-1.3c0.2-0.5,0.8-0.7,1.3-0.5l0,0   c0,0,0.6,0.2,1.6,0.2c1,0,1.6-0.2,1.6-0.2c0.5-0.2,1.1,0,1.3,0.5c0.2,0.5,0,1.1-0.5,1.3C56.5,61,55.6,61.3,54.2,61.3z"/>
	<path fill="#ABCFD3" d="M83,68v10c0,1.1-0.9,2-2,2H63c-1.1,0-2-0.9-2-2V68c0-1.1,0.9-2,2-2h18C82.1,66,83,66.9,83,68z"/>
	<path fill="#232E38;" d="M81,81H63c-1.7,0-3-1.3-3-3V68c0-1.7,1.3-3,3-3h18c1.7,0,3,1.3,3,3v10C84,79.7,82.7,81,81,81z    M63,67c-0.6,0-1,0.4-1,1v10c0,0.6,0.4,1,1,1h18c0.6,0,1-0.4,1-1V68c0-0.6-0.4-1-1-1H63z"/>
	<path fill="#232E38;" d="M79,67H65c-0.6,0-1-0.4-1-1v-3c0-4.4,3.6-8,8-8s8,3.6,8,8v3C80,66.6,79.6,67,79,67z M66,65h12   v-2c0-3.3-2.7-6-6-6s-6,2.7-6,6V65z"/>
	<path fill="#232E38;" d="M72,77c-0.6,0-1-0.4-1-1v-2c0-0.6,0.4-1,1-1s1,0.4,1,1v2C73,76.6,72.6,77,72,77z"/>

	<circle fill="#ABCFD3" cx="72" cy="72" r="1"/>
	<path fill="#232E38;" d="M72,74c-1.1,0-2-0.9-2-2s0.9-2,2-2s2,0.9,2,2S73.1,74,72,74z M72,72C72,72,72,72,72,72l1,0   L72,72z"/>
	<path fill="#383128" d="M49,50c-0.3,0-0.5-0.1-0.7-0.3C48.1,49.5,48,49.3,48,49c0-0.3,0.1-0.5,0.3-0.7   c0.4-0.4,1-0.4,1.4,0c0.2,0.2,0.3,0.4,0.3,0.7c0,0.3-0.1,0.5-0.3,0.7C49.5,49.9,49.3,50,49,50z"/>
</svg>